<?xml version="1.0" encoding="UTF-8" standalone="no"?>
<svg width="26px" height="26px" viewBox="0 0 26 26" version="1.1" xmlns="http://www.w3.org/2000/svg" xmlns:xlink="http://www.w3.org/1999/xlink" xmlns:sketch="http://www.bohemiancoding.com/sketch/ns">
    <g id="Qpalx-_-UX" stroke="none" stroke-width="1" fill="none" fill-rule="evenodd" sketch:type="MSPage">
        <g id="Dashboard---Open" sketch:type="MSArtboardGroup" transform="translate(-32.000000, -294.000000)" fill="#95A5A6">
            <g id="side-bar" sketch:type="MSLayerGroup" transform="translate(0.000000, 175.000000)">
                <g id="profile" transform="translate(32.000000, 119.000000)" sketch:type="MSShapeGroup">
                    <g id="icon">
                        <path d="M13,0 C5.85,0 0,5.85 0,13 C0,20.15 5.85,26 13,26 C20.15,26 26,20.15 26,13 C26,5.85 20.15,0 13,0 L13,0 Z M13,3.9 C15.21,3.9 16.9,5.59 16.9,7.8 C16.9,10.01 15.21,11.7 13,11.7 C10.79,11.7 9.1,10.01 9.1,7.8 C9.1,5.59 10.79,3.9 13,3.9 L13,3.9 Z M13,22.36 C9.75,22.36 6.89,20.67 5.2,18.2 C5.2,15.6 10.4,14.17 13,14.17 C15.6,14.17 20.8,15.6 20.8,18.2 C19.11,20.67 16.25,22.36 13,22.36 L13,22.36 Z" id="Shape"></path>
                    </g>
                </g>
            </g>
        </g>
    </g>
</svg>