<?xml version="1.0" encoding="UTF-8" standalone="no"?>
<svg width="200px" height="200px" viewBox="0 0 200 200" version="1.1" xmlns="http://www.w3.org/2000/svg" xmlns:xlink="http://www.w3.org/1999/xlink" xmlns:sketch="http://www.bohemiancoding.com/sketch/ns">
    <!-- Generator: Sketch 3.5 (25232) - http://www.bohemiancoding.com/sketch -->
    <title>Learn logo</title>
    <desc>Created with Sketch.</desc>
    <defs>
        <linearGradient x1="50%" y1="0%" x2="50%" y2="100%" id="linearGradient-1">
            <stop stop-color="#D7D7D7" offset="0%"></stop>
            <stop stop-color="#ABABAB" offset="100%"></stop>
        </linearGradient>
        <filter x="-50%" y="-50%" width="200%" height="200%" filterUnits="objectBoundingBox" id="filter-2">
            <feOffset dx="0" dy="10" in="SourceAlpha" result="shadowOffsetOuter1"></feOffset>
            <feGaussianBlur stdDeviation="12.5" in="shadowOffsetOuter1" result="shadowBlurOuter1"></feGaussianBlur>
            <feColorMatrix values="0 0 0 0 0   0 0 0 0 0   0 0 0 0 0  0 0 0 0.0811594203 0" in="shadowBlurOuter1" type="matrix" result="shadowMatrixOuter1"></feColorMatrix>
            <feMerge>
                <feMergeNode in="shadowMatrixOuter1"></feMergeNode>
                <feMergeNode in="SourceGraphic"></feMergeNode>
            </feMerge>
        </filter>
        <rect id="path-3" x="0" y="0" width="1280" height="2612" rx="6"></rect>
        <filter x="-50%" y="-50%" width="200%" height="200%" filterUnits="objectBoundingBox" id="filter-5">
            <feOffset dx="0" dy="1" in="SourceAlpha" result="shadowOffsetInner1"></feOffset>
            <feGaussianBlur stdDeviation="0.5" in="shadowOffsetInner1" result="shadowBlurInner1"></feGaussianBlur>
            <feComposite in="shadowBlurInner1" in2="SourceAlpha" operator="arithmetic" k2="-1" k3="1" result="shadowInnerInner1"></feComposite>
            <feColorMatrix values="0 0 0 0 0   0 0 0 0 0   0 0 0 0 0  0 0 0 0.35 0" in="shadowInnerInner1" type="matrix" result="shadowMatrixInner1"></feColorMatrix>
            <feMerge>
                <feMergeNode in="SourceGraphic"></feMergeNode>
                <feMergeNode in="shadowMatrixInner1"></feMergeNode>
            </feMerge>
        </filter>
    </defs>
    <g id="Qpalx-_-UX" stroke="none" stroke-width="1" fill="none" fill-rule="evenodd" sketch:type="MSPage">
        <g id="Home-" sketch:type="MSArtboardGroup" transform="translate(-240.000000, -1153.000000)">
            <g id="Home" sketch:type="MSLayerGroup" transform="translate(0.000000, -5.000000)">
                <g id="Content">
                    <mask id="mask-4" sketch:name="Mask" fill="white">
                        <use xlink:href="#path-3"></use>
                    </mask>
                    <use id="Mask" stroke="url(#linearGradient-1)" fill="#FFFFFF" filter="url(#filter-2)" sketch:type="MSShapeGroup" xlink:href="#path-3"></use>
                    <g id="Site-Content" mask="url(#mask-4)">
                        <g transform="translate(-145.000000, 47.000000)" id="Info---Body">
                            <g transform="translate(385.000000, 989.000000)">
                                <rect id="Rectangle-94" fill="#333333" filter="url(#filter-5)" sketch:type="MSShapeGroup" x="95" y="122" width="11" height="1039"></rect>
                                <g id="Learn" transform="translate(0.000000, 122.000000)" sketch:type="MSShapeGroup">
                                    <g id="Learn-logo">
                                        <g id="Group">
                                            <circle id="Oval" fill="#2C97DE" cx="100" cy="100" r="100"></circle>
                                            <g transform="translate(36.507937, 49.206349)" id="Shape">
                                                <path d="M7.93650794,12.8571429 L0.952380952,12.8571429 L0.952380952,92.8571429 L53.1746032,92.8571429 C53.3333333,97.3015873 57.7777778,100.952381 63.3333333,100.952381 C68.8888889,100.952381 73.3333333,97.3015873 73.4920635,92.8571429 L125.714286,92.8571429 L125.714286,12.8571429 L119.047619,12.8571429" fill="#753A29"></path>
                                                <path d="M63.4920635,3.96825397 L63.4920635,86.3492063 C82.0634921,83.4920635 100.47619,80.6349206 119.047619,86.3492063 L119.047619,3.96825397 C100.47619,-1.9047619 82.0634921,1.11111111 63.4920635,3.96825397 L63.4920635,3.96825397 Z" fill="#BEC8CE"></path>
                                                <path d="M63.4920635,3.96825397 L63.4920635,86.3492063 C44.9206349,83.4920635 26.5079365,80.6349206 7.93650794,86.3492063 L7.93650794,3.96825397 C26.5079365,-1.9047619 44.9206349,1.11111111 63.4920635,3.96825397 L63.4920635,3.96825397 Z" fill="#E3E6E8"></path>
                                                <path d="M68.2539683,14.1269841 C67.4603175,14.1269841 66.8253968,13.6507937 66.6666667,12.8571429 C66.5079365,12.0634921 67.1428571,11.2698413 67.9365079,11.1111111 C76.3492063,9.84126984 86.1904762,8.41269841 95.5555556,8.41269841 C102.539683,8.41269841 108.730159,9.20634921 114.761905,10.6349206 C115.555556,10.7936508 116.031746,11.7460317 115.873016,12.5396825 C115.714286,13.3333333 114.761905,13.8095238 113.968254,13.6507937 C108.253968,12.2222222 102.222222,11.5873016 95.5555556,11.5873016 C86.3492063,11.5873016 76.8253968,13.015873 68.4126984,14.2857143 C68.4126984,14.1269841 68.2539683,14.1269841 68.2539683,14.1269841 L68.2539683,14.1269841 Z" fill="#9BAAB3"></path>
                                                <path d="M68.2539683,26.6666667 C67.4603175,26.6666667 66.8253968,26.1904762 66.6666667,25.3968254 C66.5079365,24.6031746 67.1428571,23.8095238 67.9365079,23.6507937 C76.3492063,22.3809524 86.1904762,20.952381 95.5555556,20.952381 C102.539683,20.952381 108.730159,21.7460317 114.761905,23.1746032 C115.555556,23.3333333 116.031746,24.2857143 115.873016,25.0793651 C115.714286,25.8730159 114.761905,26.3492063 113.968254,26.1904762 C108.253968,24.7619048 102.222222,24.1269841 95.5555556,24.1269841 C86.3492063,24.1269841 76.8253968,25.5555556 68.4126984,26.8253968 C68.4126984,26.6666667 68.2539683,26.6666667 68.2539683,26.6666667 L68.2539683,26.6666667 Z" fill="#9BAAB3"></path>
                                                <path d="M68.2539683,39.2063492 C67.4603175,39.2063492 66.8253968,38.7301587 66.6666667,37.9365079 C66.5079365,37.1428571 67.1428571,36.3492063 67.9365079,36.1904762 C76.3492063,34.9206349 86.1904762,33.4920635 95.5555556,33.4920635 C102.539683,33.4920635 108.730159,34.2857143 114.761905,35.7142857 C115.555556,35.8730159 116.031746,36.8253968 115.873016,37.6190476 C115.714286,38.4126984 114.761905,38.8888889 113.968254,38.7301587 C108.253968,37.3015873 102.222222,36.6666667 95.5555556,36.6666667 C86.3492063,36.6666667 76.8253968,38.0952381 68.4126984,39.3650794 C68.4126984,39.2063492 68.2539683,39.2063492 68.2539683,39.2063492 L68.2539683,39.2063492 Z" fill="#9BAAB3"></path>
                                                <path d="M68.2539683,51.7460317 C67.4603175,51.7460317 66.8253968,51.2698413 66.6666667,50.4761905 C66.5079365,49.6825397 67.1428571,48.8888889 67.9365079,48.7301587 C76.3492063,47.4603175 86.1904762,46.031746 95.5555556,46.031746 C102.539683,46.031746 108.730159,46.8253968 114.761905,48.2539683 C115.555556,48.4126984 116.031746,49.3650794 115.873016,50.1587302 C115.714286,50.952381 114.761905,51.4285714 113.968254,51.2698413 C108.253968,49.8412698 102.222222,49.2063492 95.5555556,49.2063492 C86.3492063,49.2063492 76.8253968,50.6349206 68.4126984,51.9047619 C68.4126984,51.7460317 68.2539683,51.7460317 68.2539683,51.7460317 L68.2539683,51.7460317 Z" fill="#9BAAB3"></path>
                                                <path d="M68.2539683,64.2857143 C67.4603175,64.2857143 66.8253968,63.8095238 66.6666667,63.015873 C66.5079365,62.2222222 67.1428571,61.4285714 67.9365079,61.2698413 C76.3492063,60 86.1904762,58.5714286 95.5555556,58.5714286 C102.539683,58.5714286 108.730159,59.3650794 114.761905,60.7936508 C115.555556,60.952381 116.031746,61.9047619 115.873016,62.6984127 C115.714286,63.4920635 114.761905,63.968254 113.968254,63.8095238 C108.253968,62.3809524 102.222222,61.7460317 95.5555556,61.7460317 C86.3492063,61.7460317 76.8253968,63.1746032 68.4126984,64.4444444 C68.4126984,64.2857143 68.2539683,64.2857143 68.2539683,64.2857143 L68.2539683,64.2857143 Z" fill="#9BAAB3"></path>
                                                <path d="M68.2539683,76.8253968 C67.4603175,76.8253968 66.8253968,76.3492063 66.6666667,75.5555556 C66.5079365,74.7619048 67.1428571,73.968254 67.9365079,73.8095238 C76.3492063,72.5396825 86.1904762,71.1111111 95.5555556,71.1111111 C102.539683,71.1111111 108.730159,71.9047619 114.761905,73.3333333 C115.555556,73.4920635 116.031746,74.4444444 115.873016,75.2380952 C115.714286,76.031746 114.761905,76.5079365 113.968254,76.3492063 C108.253968,74.9206349 102.222222,74.2857143 95.5555556,74.2857143 C86.3492063,74.2857143 76.8253968,75.7142857 68.4126984,76.984127 C68.4126984,76.8253968 68.2539683,76.8253968 68.2539683,76.8253968 L68.2539683,76.8253968 Z" fill="#9BAAB3"></path>
                                                <path d="M49.047619,37.6190476 L49.047619,1.9047619 C43.3333333,1.26984127 37.7777778,0.634920635 32.0634921,0.634920635 L32.0634921,37.6190476 L40.4761905,30.7936508 L49.047619,37.6190476 L49.047619,37.6190476 Z" fill="#D62E2F"></path>
                                            </g>
                                        </g>
                                    </g>
                                </g>
                            </g>
                        </g>
                    </g>
                </g>
            </g>
        </g>
    </g>
</svg>