<?xml version="1.0" encoding="utf-8"?>
<!-- Generator: Adobe Illustrator 19.0.0, SVG Export Plug-In . SVG Version: 6.00 Build 0)  -->
<!DOCTYPE svg PUBLIC "-//W3C//DTD SVG 1.1//EN" "http://www.w3.org/Graphics/SVG/1.1/DTD/svg11.dtd">
<svg version="1.1" id="Layer_1" xmlns="http://www.w3.org/2000/svg" xmlns:xlink="http://www.w3.org/1999/xlink" x="0px" y="0px"
	 viewBox="-330 242 130 130" style="enable-background:new -330 242 130 130;" xml:space="preserve">
<style type="text/css">
	.st0{filter:url(#Adobe_OpacityMaskFilter);}
	.st1{fill:#FFFFFF;}
	.st2{mask:url(#mask-4);}
	.st3{fill:#2C97DE;}
	.st4{fill:#FA5655;}
	.st5{fill:#3E3E3F;}
	.st6{fill:#5B5C5F;}
	.st7{fill:#9E9FA0;}
	.st8{fill:#DF2C2C;}
	.st9{fill:#E2E4E5;}
	.st10{fill:#FACB1B;}
	.st11{fill:#C9F2F8;}
	.st12{fill:#FBE158;}
</style>
<title>Owl</title>
<desc>Created with Sketch.</desc>
<g id="Home-" transform="translate(-575.000000, -2349.000000)">
	<g id="Home" transform="translate(0.000000, -5.000000)">
		<g id="Content">
			<defs>
				<filter id="Adobe_OpacityMaskFilter" filterUnits="userSpaceOnUse" x="245" y="2596" width="130" height="130">
					<feColorMatrix  type="matrix" values="1 0 0 0 0  0 1 0 0 0  0 0 1 0 0  0 0 0 1 0"/>
				</filter>
			</defs>
			<mask maskUnits="userSpaceOnUse" x="245" y="2596" width="130" height="130" id="mask-4">
				<g class="st0">
					<path id="path-3" class="st1" d="M-324,242H944c3.3,0,6,2.7,6,6v2600c0,3.3-2.7,6-6,6H-324c-3.3,0-6-2.7-6-6V248
						C-330,244.7-327.3,242-324,242z"/>
				</g>
			</mask>
			<g id="Site-Content" class="st2">
				<g transform="translate(145.000000, 2219.000000)">
					<g id="Owl" transform="translate(575.000000, 88.000000)">
						<g id="Group_1_">
							<g id="Artboard">
							</g>
							<g id="Multicolor">
								<circle id="Oval" class="st3" cx="-410" cy="354" r="65"/>
								<g id="Group" transform="translate(34.272727, 27.181818)">
									<path id="Shape" class="st4" d="M-412.4,350.4l-22.5-23.6h-18.9l-18.6,25.2c1.2-1,2.8-1.6,4.5-1.6H-412.4L-412.4,350.4z"/>
									<path id="Shape_1_" class="st5" d="M-420.7,328.2c-0.6-3.9-3.2-7.7-5.6-10.7c-0.8,1.6-2.2,2.9-3.8,3.7
										c0.2,6.6,0.1,13.6-3.6,25.8c1.2,1.4,2.7,2.8,3.9,3.4C-423.3,347.8-419.4,336-420.7,328.2L-420.7,328.2z"/>
									<path id="Shape_2_" class="st5" d="M-458.5,321.2c-1.6-0.8-3-2.1-3.8-3.7c-2.4,2.9-5,6.8-5.6,10.7
										c-1.3,7.8,2.6,19.6,9.1,22.2c1.2-0.6,2.7-2,3.9-3.4C-458.6,334.8-458.6,327.8-458.5,321.2L-458.5,321.2z"/>
									<path id="Shape_3_" class="st6" d="M-433.6,322c-4.6,0-8.3-3.7-8.3-8.3c0-0.3,0-0.6,0-0.8c-1.6-0.5-3.2-0.5-4.8,0
										c0,0.3,0,0.5,0,0.8c0,4.6-3.7,8.3-8.3,8.3c-1.3,0-2.5-0.3-3.6-0.8c-0.2,7.2-0.1,14.8,4.7,29.2h9.5h9.5
										c4.8-14.3,4.9-22,4.7-29.2C-431.2,321.7-432.4,322-433.6,322L-433.6,322z"/>
									<path id="Shape_4_" class="st7" d="M-446.7,312.9c0,0.3,0,0.5,0,0.8c0,4.6-3.7,8.3-8.3,8.3c-1.3,0-2.5-0.3-3.6-0.8
										c-0.2,7.2-0.1,14.8,4.7,29.2h9.5v-37.8C-445.1,312.6-445.9,312.7-446.7,312.9L-446.7,312.9z"/>
									<path id="Shape_5_" class="st8" d="M-426.5,300.6v6.2l2.4-3.5l2.4,3.5v-7.1L-426.5,300.6z"/>
									<path id="Shape_6_" class="st5" d="M-420.3,297l-23.6-7.9c-0.2-0.1-0.5-0.1-0.7,0l-23.6,7.9c-0.5,0.2-0.8,0.7-0.8,1.2
										c0,0.5,0.4,1,0.9,1.1l10.9,2.3v12.2h26v-12.2l10.9-2.3c0.5-0.1,0.9-0.6,0.9-1.1C-419.4,297.7-419.8,297.2-420.3,297
										L-420.3,297z"/>
									<path id="Shape_7_" class="st6" d="M-468.3,297c-0.5,0.2-0.8,0.7-0.8,1.2c0,0.5,0.4,1,0.9,1.1l23.6,5c0.1,0,0.2,0,0.2,0
										V289c-0.1,0-0.3,0-0.4,0.1L-468.3,297L-468.3,297z"/>
									<path id="Shape_8_" class="st8" d="M-412.4,350.4v1.2c0,0.7-0.5,1.2-1.2,1.2h-54.4c-2.6,0-4.7,2.1-4.7,4.7
										c0,2.6,2.1,4.7,4.7,4.7h54.4c0.7,0,1.2,0.5,1.2,1.2c0,0.7-0.5,1.2-1.2,1.2h-54.4c-3.9,0-7.1-3.2-7.1-7.1
										c0-2.2,1-4.2,2.6-5.5c1.2-1,2.8-1.6,4.5-1.6H-412.4L-412.4,350.4z"/>
									<path id="Shape_9_" class="st1" d="M-415.9,352.8v9.5h-52c-2.6,0-4.7-2.1-4.7-4.7s2.2-4.7,4.7-4.7H-415.9L-415.9,352.8z"/>
									<path id="Shape_10_" class="st9" d="M-415.9,353.9v2.4h-56.6c0.2-0.9,0.8-1.7,1.5-2.4H-415.9L-415.9,353.9z"/>
									<path id="Shape_11_" class="st9" d="M-415.9,358.7v2.4H-471c-0.7-0.6-1.2-1.4-1.5-2.4H-415.9L-415.9,358.7z"/>
									<path id="Shape_12_" class="st10" d="M-430.1,348c-4.7-3.2-9.5-3.2-14.2,0c-4.7-3.2-9.5-3.2-14.2,0c-0.8,2.4,0,4.7,2.4,7.1
										l2.4-4.7l2.4,4.7l2.4-4.7l2.4,4.7c1.2-1.2,2-2.4,2.4-3.5c0.4,1.2,1.2,2.4,2.4,3.5l2.4-4.7l2.4,4.7l2.4-4.7l2.4,4.7
										C-430.1,352.8-429.3,350.4-430.1,348L-430.1,348z"/>
									<path id="Shape_13_" class="st10" d="M-443.4,320.6c-0.5-0.5-1.2-0.5-1.7,0c-0.8,0.8-2,1.8-3.9,2.3
										c-0.4,0.1-0.7,0.5-0.8,0.9c-0.1,0.4,0.1,0.9,0.4,1.2c2.2,1.8,5.1,4.2,5.1,4.2s3-2.4,5.1-4.2c0.3-0.3,0.5-0.7,0.4-1.2
										c-0.1-0.4-0.4-0.8-0.8-0.9C-441.4,322.4-442.7,321.4-443.4,320.6L-443.4,320.6z"/>
									<path id="Shape_14_" class="st10" d="M-433.6,305.5c-3.5,0-6.4,2.1-7.7,5.2c-2-0.6-4-0.6-5.9,0c-1.2-3-4.2-5.2-7.7-5.2
										c-4.6,0-8.3,3.7-8.3,8.3s3.7,8.3,8.3,8.3s8.3-3.7,8.3-8.3c0-0.3,0-0.6,0-0.8c1.6-0.5,3.2-0.5,4.8,0c0,0.3,0,0.5,0,0.8
										c0,4.6,3.7,8.3,8.3,8.3s8.3-3.7,8.3-8.3S-429.1,305.5-433.6,305.5L-433.6,305.5z"/>
									<ellipse id="Oval_1_" class="st11" cx="-454.9" cy="313.8" rx="5.9" ry="5.9"/>
									<path id="Shape_15_" class="st1" d="M-454.9,307.8c-3.3,0-5.9,2.6-5.9,5.9c0,1.6,0.6,3,1.7,4.1l8.3-8.3
										C-451.9,308.5-453.3,307.8-454.9,307.8L-454.9,307.8z"/>
									<ellipse id="Oval_2_" class="st11" cx="-433.6" cy="313.8" rx="5.9" ry="5.9"/>
									<path id="Shape_16_" class="st1" d="M-433.6,307.8c-3.3,0-5.9,2.6-5.9,5.9c0,1.6,0.6,3,1.7,4.1l8.3-8.3
										C-430.6,308.5-432,307.8-433.6,307.8L-433.6,307.8z"/>
									<path id="Shape_17_" class="st5" d="M-454.9,311.4c-0.8,0-1.5,0.4-2,1l2,1.1l-2.1,1.2c0.4,0.8,1.2,1.3,2.1,1.3
										c1.3,0,2.4-1.1,2.4-2.4C-452.5,312.4-453.6,311.4-454.9,311.4L-454.9,311.4z"/>
									<path id="Shape_18_" class="st5" d="M-433.6,311.4c-0.8,0-1.5,0.4-2,1l2,1.1l-2.1,1.2c0.4,0.8,1.2,1.3,2.1,1.3
										c1.3,0,2.4-1.1,2.4-2.4C-431.3,312.4-432.3,311.4-433.6,311.4L-433.6,311.4z"/>
									<path id="Shape_19_" class="st12" d="M-445.1,320.6c-0.8,0.8-2,1.8-3.9,2.3c-0.4,0.1-0.7,0.5-0.8,0.9
										c-0.1,0.4,0.1,0.9,0.4,1.2c2.2,1.8,5.1,4.2,5.1,4.2v-8.8C-444.6,320.3-444.9,320.4-445.1,320.6L-445.1,320.6z"/>
								</g>
							</g>
						</g>
					</g>
				</g>
			</g>
		</g>
	</g>
</g>
</svg>
