<?xml version="1.0" encoding="UTF-8" standalone="no"?>
<svg width="60px" height="76px" viewBox="0 0 60 76" version="1.1" xmlns="http://www.w3.org/2000/svg" xmlns:xlink="http://www.w3.org/1999/xlink" xmlns:sketch="http://www.bohemiancoding.com/sketch/ns">
    <!-- Generator: Sketch 3.5 (25232) - http://www.bohemiancoding.com/sketch -->
    <title>Owl - Header</title>
    <desc>Created with Sketch.</desc>
    <defs></defs>
    <g id="Qpalx-_-UX" stroke="none" stroke-width="1" fill="none" fill-rule="evenodd" sketch:type="MSPage">
        <g id="iPad-Portrait" sketch:type="MSArtboardGroup" transform="translate(-18.000000, -82.000000)">
            <g id="Owl---Header" sketch:type="MSLayerGroup" transform="translate(18.000000, 82.000000)">
                <g id="Group">
                    <g id="Artboard"></g>
                    <g id="Multicolor">
                        <circle id="Oval" fill="#2C97DE" sketch:type="MSShapeGroup" cx="30" cy="30" r="30"></circle>
                        <text id="QPALX" sketch:type="MSTextLayer" font-family="Futura" font-size="13" font-weight="420" fill="#FFFFFF">
                            <tspan x="8" y="75">QPALX</tspan>
                        </text>
                        <g id="Group" transform="translate(15.818182, 12.545455)" sketch:type="MSShapeGroup">
                            <path d="M28.9090909,28.3341818 L18.5454545,17.4250909 L9.81818182,17.4250909 L1.21636364,29.0596364 C1.77818182,28.6069091 2.49272727,28.3341818 3.27272727,28.3341818 L28.9090909,28.3341818 L28.9090909,28.3341818 Z" id="Shape" fill="#FA5655"></path>
                            <path d="M25.08,18.102 C24.7821818,16.314 23.5990909,14.5276364 22.4803636,13.1781818 C22.098,13.9156364 21.4827273,14.5101818 20.7316364,14.8685455 C20.8123636,17.9187273 20.772,21.1407273 19.05,26.7572727 C19.626,27.3916364 20.3105455,28.0554545 20.8669091,28.3341818 C23.8761818,27.1303636 25.6816364,21.7134545 25.08,18.102 L25.08,18.102 Z" id="Shape" fill="#3E3E3F"></path>
                            <path d="M7.632,14.8685455 C6.88090909,14.5101818 6.26563636,13.9156364 5.88327273,13.1781818 C4.76454545,14.5276364 3.58145455,16.3145455 3.28363636,18.102 C2.682,21.7134545 4.48745455,27.1303636 7.49672727,28.3341818 C8.05363636,28.056 8.73763636,27.3916364 9.31363636,26.7572727 C7.59163636,21.1412727 7.55127273,17.9192727 7.632,14.8685455 L7.632,14.8685455 Z" id="Shape" fill="#3E3E3F"></path>
                            <path d="M19.0909091,15.2432727 C16.9821818,15.2432727 15.2727273,13.5338182 15.2727273,11.4250909 C15.2727273,11.2974545 15.2792727,11.1709091 15.2918182,11.0465455 C14.5494545,10.8310909 13.8141818,10.8310909 13.0718182,11.0465455 C13.0843636,11.1709091 13.0909091,11.2969091 13.0909091,11.4250909 C13.0909091,13.5338182 11.3814545,15.2432727 9.27272727,15.2432727 C8.68472727,15.2432727 8.13,15.1063636 7.632,14.8685455 C7.54418182,18.1941818 7.59436364,21.7161818 9.81818182,28.3341818 L14.1818182,28.3341818 L18.5454545,28.3341818 C20.7692727,21.7167273 20.8194545,18.1947273 20.7316364,14.8685455 C20.2336364,15.1063636 19.6789091,15.2432727 19.0909091,15.2432727 L19.0909091,15.2432727 Z" id="Shape" fill="#5B5C5F"></path>
                            <path d="M13.0718182,11.046 C13.0838182,11.1709091 13.0909091,11.2969091 13.0909091,11.4250909 C13.0909091,13.5338182 11.3814545,15.2432727 9.27272727,15.2432727 C8.68472727,15.2432727 8.12945455,15.1063636 7.632,14.8685455 C7.54418182,18.1941818 7.59436364,21.7161818 9.81818182,28.3341818 L14.1818182,28.3341818 L14.1818182,10.8850909 C13.8125455,10.8850909 13.4432727,10.9385455 13.0718182,11.046 L13.0718182,11.046 Z" id="Shape" fill="#9E9FA0"></path>
                            <path d="M22.3636364,5.34272727 L22.3636364,8.18181818 L23.4545455,6.54545455 L24.5454545,8.18181818 L24.5454545,4.88454545 L22.3636364,5.34272727 Z" id="Shape" fill="#DF2C2C"></path>
                            <path d="M25.2632727,3.69490909 L14.3541818,0.0278181818 C14.2423636,-0.00927272727 14.1212727,-0.00927272727 14.0089091,0.0278181818 L3.09981818,3.69490909 C2.86581818,3.77290909 2.71363636,3.99818182 2.72781818,4.24418182 C2.742,4.49018182 2.91981818,4.69636364 3.16090909,4.74654545 L8.18181818,5.81454545 L8.18181818,11.4545455 L20.1818182,11.4545455 L20.1818182,5.81454545 L25.2021818,4.74654545 C25.4432727,4.69636364 25.6216364,4.49018182 25.6352727,4.24418182 C25.6494545,3.99818182 25.4972727,3.77290909 25.2632727,3.69490909 L25.2632727,3.69490909 Z" id="Shape" fill="#3E3E3F"></path>
                            <path d="M3.10036364,3.69490909 C2.86636364,3.77290909 2.71418182,3.99818182 2.72836364,4.24418182 C2.74254545,4.49018182 2.92036364,4.69636364 3.16145455,4.74654545 L14.0705455,7.068 C14.1070909,7.07563636 14.1447273,7.068 14.1818182,7.068 L14.1818182,0 C14.1234545,0 14.0650909,0.00927272727 14.0094545,0.0278181818 L3.10036364,3.69490909 L3.10036364,3.69490909 Z" id="Shape" fill="#5B5C5F"></path>
                            <path d="M28.9090909,28.3341818 L28.9090909,28.8796364 C28.9090909,29.1807273 28.6647273,29.4250909 28.3636364,29.4250909 L3.27272727,29.4250909 C2.08472727,29.4250909 1.09090909,30.3927273 1.09090909,31.6069091 C1.09090909,32.8123636 2.06727273,33.7887273 3.27272727,33.7887273 L28.3636364,33.7887273 C28.6647273,33.7887273 28.9090909,34.0330909 28.9090909,34.3341818 C28.9090909,34.6352727 28.6647273,34.8796364 28.3636364,34.8796364 L3.27272727,34.8796364 C1.46727273,34.8796364 0,33.4123636 0,31.6069091 C0,30.5814545 0.474545455,29.6596364 1.21636364,29.0596364 C1.77818182,28.6069091 2.49272727,28.3341818 3.27272727,28.3341818 L28.9090909,28.3341818 L28.9090909,28.3341818 Z" id="Shape" fill="#DF2C2C"></path>
                            <path d="M27.2727273,29.4250909 L27.2727273,33.7887273 L3.27272727,33.7887273 C2.08472727,33.7887273 1.09090909,32.8205455 1.09090909,31.6069091 C1.09090909,30.3932727 2.08472727,29.4250909 3.27272727,29.4250909 L27.2727273,29.4250909 L27.2727273,29.4250909 Z" id="Shape" fill="#FFFFFF"></path>
                            <path d="M27.2727273,29.9705455 L27.2727273,31.0614545 L1.16181818,31.0614545 C1.27090909,30.6305455 1.51090909,30.2541818 1.83272727,29.9705455 L27.2727273,29.9705455 L27.2727273,29.9705455 Z" id="Shape" fill="#E2E4E5"></path>
                            <path d="M27.2727273,32.1523636 L27.2727273,33.2432727 L1.83272727,33.2432727 C1.51090909,32.9596364 1.27090909,32.5832727 1.16181818,32.1523636 L27.2727273,32.1523636 L27.2727273,32.1523636 Z" id="Shape" fill="#E2E4E5"></path>
                            <path d="M20.7272727,27.2432727 C18.5454545,25.7885455 16.3636364,25.7885455 14.1818182,27.2432727 C12,25.7885455 9.81818182,25.7885455 7.63636364,27.2432727 C7.27254545,28.3341818 7.63636364,29.4250909 8.72727273,30.516 L9.81818182,28.3341818 L10.9090909,30.516 L12,28.3341818 L13.0909091,30.516 C13.6363636,29.9705455 14.0001818,29.4250909 14.1818182,28.8796364 C14.3634545,29.4250909 14.7272727,29.9705455 15.2727273,30.516 L16.3636364,28.3341818 L17.4545455,30.516 L18.5454545,28.3341818 L19.6363636,30.516 C20.7272727,29.4250909 21.0910909,28.3341818 20.7272727,27.2432727 L20.7272727,27.2432727 Z" id="Shape" fill="#FACB1B"></path>
                            <path d="M14.5647273,14.5958182 C14.3525455,14.3863636 14.0110909,14.3863636 13.7983636,14.5958182 C13.4465455,14.9427273 12.8525455,15.4047273 12.0163636,15.6387273 C11.8216364,15.6932727 11.6727273,15.8514545 11.6301818,16.0489091 C11.5876364,16.2469091 11.658,16.4514545 11.8134545,16.5818182 C12.8061818,17.4152727 14.1818182,18.516 14.1818182,18.516 C14.1818182,18.516 15.5574545,17.4152727 16.5501818,16.5818182 C16.7050909,16.452 16.7754545,16.2469091 16.7329091,16.0489091 C16.6903636,15.8509091 16.542,15.6932727 16.3472727,15.6387273 C15.5105455,15.4047273 14.9165455,14.9427273 14.5647273,14.5958182 L14.5647273,14.5958182 Z" id="Shape" fill="#FACB1B"></path>
                            <path d="M19.0909091,7.60690909 C17.4905455,7.60690909 16.1225455,8.592 15.5547273,9.98836364 C14.6405455,9.73145455 13.7230909,9.73145455 12.8089091,9.98836364 C12.2410909,8.592 10.8730909,7.60690909 9.27272727,7.60690909 C7.164,7.60690909 5.45454545,9.31636364 5.45454545,11.4250909 C5.45454545,13.5338182 7.164,15.2432727 9.27272727,15.2432727 C11.3814545,15.2432727 13.0909091,13.5338182 13.0909091,11.4250909 C13.0909091,11.2974545 13.0843636,11.1709091 13.0718182,11.0465455 C13.8141818,10.8310909 14.5494545,10.8310909 15.2918182,11.0465455 C15.2792727,11.1709091 15.2727273,11.2969091 15.2727273,11.4250909 C15.2727273,13.5338182 16.9821818,15.2432727 19.0909091,15.2432727 C21.1996364,15.2432727 22.9090909,13.5338182 22.9090909,11.4250909 C22.9090909,9.31636364 21.1996364,7.60690909 19.0909091,7.60690909 L19.0909091,7.60690909 Z" id="Shape" fill="#FACB1B"></path>
                            <circle id="Oval" fill="#C9F2F8" cx="9.27272727" cy="11.4250909" r="2.72727273"></circle>
                            <path d="M9.27272727,8.69781818 C7.76672727,8.69781818 6.54545455,9.91909091 6.54545455,11.4250909 C6.54545455,12.1592727 6.83890909,12.8225455 7.31072727,13.3129091 L11.1605455,9.46309091 C10.6701818,8.99127273 10.0069091,8.69781818 9.27272727,8.69781818 L9.27272727,8.69781818 Z" id="Shape" fill="#FFFFFF"></path>
                            <circle id="Oval" fill="#C9F2F8" cx="19.0909091" cy="11.4250909" r="2.72727273"></circle>
                            <path d="M19.0909091,8.69781818 C17.5849091,8.69781818 16.3636364,9.91909091 16.3636364,11.4250909 C16.3636364,12.1592727 16.6570909,12.8225455 17.1289091,13.3129091 L20.9787273,9.46309091 C20.4883636,8.99127273 19.8250909,8.69781818 19.0909091,8.69781818 L19.0909091,8.69781818 Z" id="Shape" fill="#FFFFFF"></path>
                            <path d="M9.27272727,10.3341818 C8.898,10.3341818 8.56745455,10.5234545 8.37109091,10.8114545 L9.27272727,11.3318182 L8.29363636,11.8969091 C8.46981818,12.2618182 8.84018182,12.5154545 9.27272727,12.5154545 C9.87490909,12.5154545 10.3636364,12.0272727 10.3636364,11.4245455 C10.3636364,10.8223636 9.87490909,10.3341818 9.27272727,10.3341818 L9.27272727,10.3341818 Z" id="Shape" fill="#3E3E3F"></path>
                            <path d="M19.0909091,10.3341818 C18.7161818,10.3341818 18.3856364,10.5234545 18.1892727,10.8114545 L19.0909091,11.3318182 L18.1118182,11.8969091 C18.288,12.2618182 18.6583636,12.5154545 19.0909091,12.5154545 C19.6930909,12.5154545 20.1818182,12.0272727 20.1818182,11.4245455 C20.1818182,10.8223636 19.6930909,10.3341818 19.0909091,10.3341818 L19.0909091,10.3341818 Z" id="Shape" fill="#3E3E3F"></path>
                            <path d="M13.7989091,14.5958182 C13.4470909,14.9427273 12.8530909,15.4047273 12.0163636,15.6387273 C11.8216364,15.6932727 11.6727273,15.8514545 11.6301818,16.0489091 C11.5876364,16.2463636 11.658,16.4514545 11.8129091,16.5818182 C12.8061818,17.4152727 14.1818182,18.516 14.1818182,18.516 L14.1818182,14.4387273 C14.0432727,14.4387273 13.9047273,14.4910909 13.7989091,14.5958182 L13.7989091,14.5958182 Z" id="Shape" fill="#FBE158"></path>
                        </g>
                    </g>
                </g>
            </g>
        </g>
    </g>
</svg>