<?xml version="1.0" encoding="UTF-8" standalone="no"?>
<svg width="200px" height="200px" viewBox="0 0 200 200" version="1.1" xmlns="http://www.w3.org/2000/svg" xmlns:xlink="http://www.w3.org/1999/xlink" xmlns:sketch="http://www.bohemiancoding.com/sketch/ns">
    <!-- Generator: Sketch 3.5 (25232) - http://www.bohemiancoding.com/sketch -->
    <title>Layer_1</title>
    <desc>Created with Sketch.</desc>
    <defs>
        <linearGradient x1="50%" y1="0%" x2="50%" y2="100%" id="linearGradient-1">
            <stop stop-color="#D7D7D7" offset="0%"></stop>
            <stop stop-color="#ABABAB" offset="100%"></stop>
        </linearGradient>
        <filter x="-50%" y="-50%" width="200%" height="200%" filterUnits="objectBoundingBox" id="filter-2">
            <feOffset dx="0" dy="10" in="SourceAlpha" result="shadowOffsetOuter1"></feOffset>
            <feGaussianBlur stdDeviation="12.5" in="shadowOffsetOuter1" result="shadowBlurOuter1"></feGaussianBlur>
            <feColorMatrix values="0 0 0 0 0   0 0 0 0 0   0 0 0 0 0  0 0 0 0.0811594203 0" in="shadowBlurOuter1" type="matrix" result="shadowMatrixOuter1"></feColorMatrix>
            <feMerge>
                <feMergeNode in="shadowMatrixOuter1"></feMergeNode>
                <feMergeNode in="SourceGraphic"></feMergeNode>
            </feMerge>
        </filter>
        <rect id="path-3" x="0" y="0" width="1280" height="2612" rx="6"></rect>
        <filter x="-50%" y="-50%" width="200%" height="200%" filterUnits="objectBoundingBox" id="filter-5">
            <feOffset dx="0" dy="1" in="SourceAlpha" result="shadowOffsetInner1"></feOffset>
            <feGaussianBlur stdDeviation="0.5" in="shadowOffsetInner1" result="shadowBlurInner1"></feGaussianBlur>
            <feComposite in="shadowBlurInner1" in2="SourceAlpha" operator="arithmetic" k2="-1" k3="1" result="shadowInnerInner1"></feComposite>
            <feColorMatrix values="0 0 0 0 0   0 0 0 0 0   0 0 0 0 0  0 0 0 0.35 0" in="shadowInnerInner1" type="matrix" result="shadowMatrixInner1"></feColorMatrix>
            <feMerge>
                <feMergeNode in="SourceGraphic"></feMergeNode>
                <feMergeNode in="shadowMatrixInner1"></feMergeNode>
            </feMerge>
        </filter>
    </defs>
    <g id="Qpalx-_-UX" stroke="none" stroke-width="1" fill="none" fill-rule="evenodd" sketch:type="MSPage">
        <g id="Home-" sketch:type="MSArtboardGroup" transform="translate(-240.000000, -1992.000000)">
            <g id="Home" sketch:type="MSLayerGroup" transform="translate(0.000000, -5.000000)">
                <g id="Content">
                    <mask id="mask-4" sketch:name="Mask" fill="white">
                        <use xlink:href="#path-3"></use>
                    </mask>
                    <use id="Mask" stroke="url(#linearGradient-1)" fill="#FFFFFF" filter="url(#filter-2)" sketch:type="MSShapeGroup" xlink:href="#path-3"></use>
                    <g id="Site-Content" mask="url(#mask-4)">
                        <g transform="translate(-145.000000, 47.000000)" id="Info---Body">
                            <g transform="translate(385.000000, 989.000000)">
                                <rect id="Rectangle-94" fill="#333333" filter="url(#filter-5)" sketch:type="MSShapeGroup" x="95" y="122" width="11" height="1039"></rect>
                                <g id="Performance" transform="translate(0.000000, 961.000000)" sketch:type="MSShapeGroup">
                                    <g id="Performance-logo">
                                        <g id="Layer_1">
                                            <g id="Group">
                                                <circle id="Oval" fill="#2C97DE" cx="100" cy="100" r="100"></circle>
                                                <g transform="translate(52.380952, 36.507937)" id="Shape">
                                                    <path d="M63.015873,0.952380952 L0.634920635,0.952380952 L0.634920635,126.031746 L94.6031746,126.031746 L94.6031746,32.5396825 L63.015873,0.952380952 Z" fill="#E3E6E8"></path>
                                                    <path d="M63.015873,32.5396825 L94.6031746,32.5396825 L63.015873,0.952380952 L63.015873,32.5396825 Z" fill="#BEC8CE"></path>
                                                    <path d="M81.2698413,70.6349206 L13.968254,70.6349206 C12.6984127,70.6349206 11.5873016,69.5238095 11.5873016,68.2539683 C11.5873016,66.984127 12.6984127,65.8730159 13.968254,65.8730159 L81.4285714,65.8730159 C82.6984127,65.8730159 83.8095238,66.984127 83.8095238,68.2539683 C83.6507937,69.6825397 82.6984127,70.6349206 81.2698413,70.6349206 L81.2698413,70.6349206 Z" fill="#BEC8CE"></path>
                                                    <path d="M81.2698413,90.6349206 L13.968254,90.6349206 C12.6984127,90.6349206 11.5873016,89.5238095 11.5873016,88.2539683 C11.5873016,86.984127 12.6984127,85.8730159 13.968254,85.8730159 L81.4285714,85.8730159 C82.6984127,85.8730159 83.8095238,86.984127 83.8095238,88.2539683 C83.6507937,89.5238095 82.6984127,90.6349206 81.2698413,90.6349206 L81.2698413,90.6349206 Z" fill="#BEC8CE"></path>
                                                    <path d="M81.2698413,110.634921 L13.968254,110.634921 C12.6984127,110.634921 11.5873016,109.52381 11.5873016,108.253968 C11.5873016,106.984127 12.6984127,105.873016 13.968254,105.873016 L81.4285714,105.873016 C82.6984127,105.873016 83.8095238,106.984127 83.8095238,108.253968 C83.6507937,109.52381 82.6984127,110.634921 81.2698413,110.634921 L81.2698413,110.634921 Z" fill="#BEC8CE"></path>
                                                    <path d="M53.3333333,33.968254 C54.1269841,32.0634921 54.6031746,30 54.6031746,27.7777778 C54.6031746,21.7460317 51.2698413,16.3492063 46.3492063,13.6507937 L38.2539683,27.7777778 L53.3333333,33.968254 L53.3333333,33.968254 Z" fill="#D62E2F"></path>
                                                    <path d="M30.1587302,30.952381 L38.2539683,16.8253968 C35.8730159,15.5555556 33.1746032,14.7619048 30.1587302,14.7619048 C21.1111111,14.7619048 13.8095238,22.0634921 13.8095238,31.1111111 C13.8095238,40.1587302 21.1111111,47.4603175 30.1587302,47.4603175 C36.984127,47.4603175 42.8571429,43.3333333 45.2380952,37.3015873 L30.1587302,30.952381 L30.1587302,30.952381 Z" fill="#D62E2F"></path>
                                                </g>
                                            </g>
                                        </g>
                                    </g>
                                </g>
                            </g>
                        </g>
                    </g>
                </g>
            </g>
        </g>
    </g>
</svg>