<?xml version="1.0" encoding="UTF-8" standalone="no"?>
<svg width="150px" height="150px" viewBox="0 0 150 150" version="1.1" xmlns="http://www.w3.org/2000/svg" xmlns:xlink="http://www.w3.org/1999/xlink" xmlns:sketch="http://www.bohemiancoding.com/sketch/ns">
    <!-- Generator: Sketch 3.5 (25232) - http://www.bohemiancoding.com/sketch -->
    <title>Electives</title>
    <desc>Created with Sketch.</desc>
    <defs>
        <linearGradient x1="50%" y1="0%" x2="50%" y2="100%" id="linearGradient-1">
            <stop stop-color="#D7D7D7" offset="0%"></stop>
            <stop stop-color="#ABABAB" offset="100%"></stop>
        </linearGradient>
        <filter x="-50%" y="-50%" width="200%" height="200%" filterUnits="objectBoundingBox" id="filter-2">
            <feOffset dx="0" dy="10" in="SourceAlpha" result="shadowOffsetOuter1"></feOffset>
            <feGaussianBlur stdDeviation="12.5" in="shadowOffsetOuter1" result="shadowBlurOuter1"></feGaussianBlur>
            <feColorMatrix values="0 0 0 0 0   0 0 0 0 0   0 0 0 0 0  0 0 0 0.0811594203 0" in="shadowBlurOuter1" type="matrix" result="shadowMatrixOuter1"></feColorMatrix>
            <feMerge>
                <feMergeNode in="shadowMatrixOuter1"></feMergeNode>
                <feMergeNode in="SourceGraphic"></feMergeNode>
            </feMerge>
        </filter>
        <rect id="path-3" x="0" y="0" width="1280" height="2568" rx="6"></rect>
    </defs>
    <g id="Qpalx-_-UX" stroke="none" stroke-width="1" fill="none" fill-rule="evenodd" sketch:type="MSPage">
        <g id="Sign-Up---Select-Courses" sketch:type="MSArtboardGroup" transform="translate(-682.000000, -1126.000000)">
            <g id="Home" sketch:type="MSLayerGroup" transform="translate(0.000000, -5.000000)">
                <g id="Content">
                    <mask id="mask-4" sketch:name="Mask" fill="white">
                        <use xlink:href="#path-3"></use>
                    </mask>
                    <use id="Mask" stroke="url(#linearGradient-1)" fill="#FFFFFF" filter="url(#filter-2)" sketch:type="MSShapeGroup" xlink:href="#path-3"></use>
                    <g id="Site-Content" mask="url(#mask-4)">
                        <g transform="translate(0.000000, 72.000000)" id="content">
                            <g transform="translate(86.000000, 699.000000)">
                                <g id="Group-8" transform="translate(596.000000, 360.000000)" sketch:type="MSShapeGroup">
                                    <g id="Electives">
                                        <g id="Layer_1">
                                            <g id="Group">
                                                <circle id="Oval" fill="#2C97DE" cx="75" cy="75" r="75"></circle>
                                                <g transform="translate(26.190476, 24.809524)">
                                                    <path d="M95.7142857,95.0714286 L1.9047619,95.0714286 C0.952380952,95.0714286 0.119047619,94.2380952 0.119047619,93.2857143 C0.119047619,92.3333333 0.952380952,91.5 1.9047619,91.5 L95.7142857,91.5 C96.6666667,91.5 97.5,92.3333333 97.5,93.2857143 C97.5,94.3571429 96.6666667,95.0714286 95.7142857,95.0714286 L95.7142857,95.0714286 Z" id="Shape" fill="#334D5C"></path>
                                                    <path d="M55.0005238,12.5946786 L75.2594167,26.6263214 L35.8759167,83.4882381 L15.6170238,69.4565952 L55.0005238,12.5946786 L55.0005238,12.5946786 Z" id="Rectangle-path" fill="#FAD839"></path>
                                                    <path d="M82.1428571,10.9047619 L67.1428571,0.547619048 C65.7142857,-0.404761905 63.6904762,-0.0476190476 62.7380952,1.38095238 L55,12.5714286 L75.2380952,26.6190476 L82.9761905,15.4285714 C83.9285714,13.8809524 83.5714286,11.9761905 82.1428571,10.9047619 L82.1428571,10.9047619 Z" id="Shape" fill="#EC5552"></path>
                                                    <path d="M35.7142857,83.5238095 L15.5952381,69.4761905 L13.9285714,93.4047619 L35.7142857,83.5238095 Z" id="Shape" fill="#753A29"></path>
                                                    <path d="M61.6550238,17.2042262 L68.5058571,21.9492262 L29.1223571,78.8111429 L22.2715238,74.0661429 L61.6550238,17.2042262 L61.6550238,17.2042262 Z" id="Rectangle-path" fill="#FFC717"></path>
                                                </g>
                                            </g>
                                        </g>
                                    </g>
                                </g>
                            </g>
                        </g>
                    </g>
                </g>
            </g>
        </g>
    </g>
</svg>