<?xml version="1.0" encoding="UTF-8" standalone="no"?>
<svg width="150px" height="150px" viewBox="0 0 150 150" version="1.1" xmlns="http://www.w3.org/2000/svg" xmlns:xlink="http://www.w3.org/1999/xlink" xmlns:sketch="http://www.bohemiancoding.com/sketch/ns">
    <!-- Generator: Sketch 3.5 (25232) - http://www.bohemiancoding.com/sketch -->
    <title>Group</title>
    <desc>Created with Sketch.</desc>
    <defs></defs>
    <g id="Qpalx-_-UX" stroke="none" stroke-width="1" fill="none" fill-rule="evenodd" sketch:type="MSPage">
        <g id="Sign-Up---Select-Courses" sketch:type="MSArtboardGroup" transform="translate(-86.000000, -848.000000)">
            <g id="Home" sketch:type="MSLayerGroup" transform="translate(0.000000, -5.000000)">
                <g id="Content" sketch:type="MSShapeGroup">
                    <g id="Site-Content" transform="translate(0.000000, 72.000000)">
                        <g id="content" transform="translate(86.000000, 699.000000)">
                            <g id="Group-3" transform="translate(0.000000, 82.000000)">
                                <g id="English">
                                    <g id="Layer_1">
                                        <g id="Group">
                                            <circle id="Oval" fill="#2C97DE" cx="75" cy="75" r="75"></circle>
                                            <g transform="translate(30.761905, 27.380952)">
                                                <path d="M81.8571429,94.5238095 L15.0714286,94.5238095 C12.6904762,94.5238095 10.7857143,92.6190476 10.7857143,90.2380952 L10.7857143,5 C10.7857143,2.61904762 12.6904762,0.714285714 15.0714286,0.714285714 L81.8571429,0.714285714 C84.2380952,0.714285714 86.1428571,2.61904762 86.1428571,5 L86.1428571,90.2380952 C86.1428571,92.6190476 84.2380952,94.5238095 81.8571429,94.5238095 L81.8571429,94.5238095 Z" id="Shape" fill="#DBAE1F"></path>
                                                <rect id="Rectangle-path" fill="#EC5552" x="21.5" y="0.714285714" width="3.57142857" height="93.6904762"></rect>
                                                <path d="M9.47619048,88.3333333 C4.11904762,88.3333333 0.0714285714,86.0714286 0.0714285714,82.9761905 C0.0714285714,79.8809524 4.11904762,77.6190476 9.47619048,77.6190476 C10.0714286,77.6190476 10.6666667,78.0952381 10.6666667,78.8095238 C10.6666667,79.5238095 10.1904762,80 9.47619048,80 C5.07142857,80 2.45238095,81.7857143 2.45238095,82.9761905 C2.45238095,84.1666667 5.19047619,85.952381 9.47619048,85.952381 C13.8809524,85.952381 16.5,84.1666667 16.5,82.9761905 C16.5,82.3809524 16.9761905,81.7857143 17.6904762,81.7857143 C18.2857143,81.7857143 18.8809524,82.2619048 18.8809524,82.9761905 C18.7619048,85.952381 14.7142857,88.3333333 9.47619048,88.3333333 L9.47619048,88.3333333 Z" id="Shape" fill="#E3E6E8"></path>
                                                <path d="M9.47619048,75.952381 C4.11904762,75.952381 0.0714285714,73.6904762 0.0714285714,70.5952381 C0.0714285714,67.5 4.11904762,65.2380952 9.47619048,65.2380952 C10.0714286,65.2380952 10.6666667,65.7142857 10.6666667,66.4285714 C10.6666667,67.0238095 10.1904762,67.6190476 9.47619048,67.6190476 C5.07142857,67.6190476 2.45238095,69.4047619 2.45238095,70.5952381 C2.45238095,71.7857143 5.19047619,73.5714286 9.47619048,73.5714286 C13.8809524,73.5714286 16.5,71.7857143 16.5,70.5952381 C16.5,70 16.9761905,69.4047619 17.6904762,69.4047619 C18.2857143,69.4047619 18.8809524,69.8809524 18.8809524,70.5952381 C18.7619048,73.5714286 14.7142857,75.952381 9.47619048,75.952381 L9.47619048,75.952381 Z" id="Shape" fill="#E3E6E8"></path>
                                                <path d="M9.47619048,63.5714286 C4.11904762,63.5714286 0.0714285714,61.3095238 0.0714285714,58.2142857 C0.0714285714,55.1190476 4.11904762,52.8571429 9.47619048,52.8571429 C10.0714286,52.8571429 10.6666667,53.3333333 10.6666667,54.047619 C10.6666667,54.6428571 10.1904762,55.2380952 9.47619048,55.2380952 C5.07142857,55.2380952 2.45238095,57.0238095 2.45238095,58.2142857 C2.45238095,59.4047619 5.19047619,61.1904762 9.47619048,61.1904762 C13.8809524,61.1904762 16.5,59.4047619 16.5,58.2142857 C16.5,57.6190476 16.9761905,57.0238095 17.6904762,57.0238095 C18.2857143,57.0238095 18.8809524,57.5 18.8809524,58.2142857 C18.7619048,61.1904762 14.7142857,63.5714286 9.47619048,63.5714286 L9.47619048,63.5714286 Z" id="Shape" fill="#E3E6E8"></path>
                                                <path d="M9.47619048,51.1904762 C4.11904762,51.1904762 0.0714285714,48.9285714 0.0714285714,45.8333333 C0.0714285714,42.7380952 4.11904762,40.4761905 9.47619048,40.4761905 C10.0714286,40.4761905 10.6666667,40.952381 10.6666667,41.6666667 C10.6666667,42.2619048 10.1904762,42.8571429 9.47619048,42.8571429 C5.07142857,42.8571429 2.45238095,44.6428571 2.45238095,45.8333333 C2.45238095,47.0238095 5.19047619,48.8095238 9.47619048,48.8095238 C13.8809524,48.8095238 16.5,47.0238095 16.5,45.8333333 C16.5,45.2380952 16.9761905,44.6428571 17.6904762,44.6428571 C18.2857143,44.6428571 18.8809524,45.1190476 18.8809524,45.8333333 C18.7619048,48.8095238 14.7142857,51.1904762 9.47619048,51.1904762 L9.47619048,51.1904762 Z" id="Shape" fill="#E3E6E8"></path>
                                                <path d="M9.47619048,38.8095238 C4.11904762,38.8095238 0.0714285714,36.547619 0.0714285714,33.452381 C0.0714285714,30.3571429 4.11904762,28.0952381 9.47619048,28.0952381 C10.0714286,28.0952381 10.6666667,28.5714286 10.6666667,29.2857143 C10.6666667,29.8809524 10.1904762,30.4761905 9.47619048,30.4761905 C5.07142857,30.4761905 2.45238095,32.2619048 2.45238095,33.452381 C2.45238095,34.6428571 5.19047619,36.4285714 9.47619048,36.4285714 C13.8809524,36.4285714 16.5,34.6428571 16.5,33.452381 C16.5,32.8571429 16.9761905,32.2619048 17.6904762,32.2619048 C18.2857143,32.2619048 18.8809524,32.7380952 18.8809524,33.452381 C18.7619048,36.4285714 14.7142857,38.8095238 9.47619048,38.8095238 L9.47619048,38.8095238 Z" id="Shape" fill="#E3E6E8"></path>
                                                <path d="M9.47619048,26.4285714 C4.11904762,26.4285714 0.0714285714,24.1666667 0.0714285714,21.0714286 C0.0714285714,17.9761905 4.11904762,15.7142857 9.47619048,15.7142857 C10.0714286,15.7142857 10.6666667,16.1904762 10.6666667,16.9047619 C10.6666667,17.5 10.1904762,18.0952381 9.47619048,18.0952381 C5.07142857,18.0952381 2.45238095,19.8809524 2.45238095,21.0714286 C2.45238095,22.2619048 5.19047619,24.047619 9.47619048,24.047619 C13.8809524,24.047619 16.5,22.2619048 16.5,21.0714286 C16.5,20.4761905 16.9761905,19.8809524 17.6904762,19.8809524 C18.2857143,19.8809524 18.8809524,20.3571429 18.8809524,21.0714286 C18.7619048,24.047619 14.7142857,26.4285714 9.47619048,26.4285714 L9.47619048,26.4285714 Z" id="Shape" fill="#E3E6E8"></path>
                                                <path d="M9.47619048,14.047619 C4.11904762,14.047619 0.0714285714,11.7857143 0.0714285714,8.69047619 C0.0714285714,5.5952381 4.11904762,3.33333333 9.47619048,3.33333333 C10.0714286,3.33333333 10.6666667,3.80952381 10.6666667,4.52380952 C10.6666667,5.11904762 10.1904762,5.71428571 9.47619048,5.71428571 C5.07142857,5.71428571 2.45238095,7.5 2.45238095,8.69047619 C2.45238095,9.88095238 5.19047619,11.6666667 9.47619048,11.6666667 C13.8809524,11.6666667 16.5,9.88095238 16.5,8.69047619 C16.5,8.0952381 16.9761905,7.5 17.6904762,7.5 C18.2857143,7.5 18.8809524,7.97619048 18.8809524,8.69047619 C18.7619048,11.6666667 14.7142857,14.047619 9.47619048,14.047619 L9.47619048,14.047619 Z" id="Shape" fill="#E3E6E8"></path>
                                            </g>
                                        </g>
                                    </g>
                                </g>
                            </g>
                        </g>
                    </g>
                </g>
            </g>
        </g>
    </g>
</svg>