<?xml version="1.0" encoding="utf-8"?>
<!-- Generator: Adobe Illustrator 19.0.0, SVG Export Plug-In . SVG Version: 6.00 Build 0)  -->
<svg version="1.1" id="Layer_1" xmlns:sketch="http://www.bohemiancoding.com/sketch/ns"
	 xmlns="http://www.w3.org/2000/svg" xmlns:xlink="http://www.w3.org/1999/xlink" x="0px" y="0px" viewBox="-730 822 150 150"
	  xml:space="preserve">
<style type="text/css">
	.st0{filter:url(#filter-2);}
	.st1{fill:#FFFFFF;stroke:url(#path-3_3_);}
	.st2{filter:url(#Adobe_OpacityMaskFilter);}
	.st3{fill:#FFFFFF;}
	.st4{mask:url(#mask-4);}
	.st5{fill:#2C97DE;}
	.st6{fill:#FFC717;}
	.st7{fill:#3D82C4;}
</style>
<filter  width="200%" height="200%" filterUnits="objectBoundingBox" id="filter-2" x="-50%" y="-50%">
	<feOffset  dx="0" dy="10" in="SourceAlpha" result="shadowOffsetOuter1"></feOffset>
	<feGaussianBlur  stdDeviation="12.5" in="shadowOffsetOuter1" result="shadowBlurOuter1"></feGaussianBlur>
	
		<feColorMatrix  type="matrix" values="0 0 0 0 0   0 0 0 0 0   0 0 0 0 0  0 0 0 0.0811594203 0" in="shadowBlurOuter1" result="shadowMatrixOuter1">
		</feColorMatrix>
	<feMerge>
		<feMergeNode  in="shadowMatrixOuter1"></feMergeNode>
		<feMergeNode  in="SourceGraphic"></feMergeNode>
	</feMerge>
</filter>
<title>Group</title>
<desc>Created with Sketch.</desc>
<g id="Qpalx-_-UX" sketch:type="MSPage">
	<g id="Sign-Up---Select-Courses" transform="translate(-678.000000, -843.000000)" sketch:type="MSArtboardGroup">
		<g id="Home" transform="translate(0.000000, -5.000000)" sketch:type="MSLayerGroup">
			<g id="Content">
				<g id="Mask" sketch:type="MSShapeGroup" class="st0">
					
						<linearGradient id="path-3_3_" gradientUnits="userSpaceOnUse" x1="-780.9297" y1="2641.6807" x2="-780.9297" y2="2640.6807" gradientTransform="matrix(1280 0 0 -2568 999500 6784658)">
						<stop  offset="0" style="stop-color:#D7D7D7"/>
						<stop  offset="1" style="stop-color:#ABABAB"/>
					</linearGradient>
					<path id="path-3_2_" class="st1" d="M-724,822H544c3.3,0,6,2.7,6,6v2556c0,3.3-2.7,6-6,6H-724c-3.3,0-6-2.7-6-6V828
						C-730,824.7-727.3,822-724,822z"/>
				</g>
				<defs>
					<filter id="Adobe_OpacityMaskFilter" filterUnits="userSpaceOnUse" x="-52" y="1670" width="150" height="150">
						<feColorMatrix  type="matrix" values="1 0 0 0 0  0 1 0 0 0  0 0 1 0 0  0 0 0 1 0"/>
					</filter>
				</defs>
				<mask maskUnits="userSpaceOnUse" x="-52" y="1670" width="150" height="150" id="mask-4">
					<g class="st2">
						<path id="path-3" class="st3" d="M-724,822H544c3.3,0,6,2.7,6,6v2556c0,3.3-2.7,6-6,6H-724c-3.3,0-6-2.7-6-6V828
							C-730,824.7-727.3,822-724,822z"/>
					</g>
				</mask>
				<g id="Site-Content" class="st4">
					<g id="content" transform="translate(0.000000, 72.000000)">
						<g transform="translate(86.000000, 699.000000)">
							<g id="Group-7" transform="translate(592.000000, 77.000000)" sketch:type="MSShapeGroup">
								<g id="World-Languages">
									<g id="Layer_1_1_">
										<g id="Group">
											<circle id="Oval" class="st5" cx="-655" cy="897" r="75"/>
											<g transform="translate(27.380952, 27.380952)">
												<circle id="Oval_1_" class="st6" cx="-682.4" cy="869.6" r="46.9"/>
												<g>
													<path id="Shape" class="st7" d="M-682.4,849.6c-13.9,0-27.1-2.9-36.3-8l1.8-3c8.7,4.8,21.3,7.5,34.5,7.5
														c13.3,0,26-2.7,34.5-7.5l1.8,3C-655.2,846.8-668.5,849.6-682.4,849.6L-682.4,849.6z"/>
													<path id="Shape_1_" class="st7" d="M-647.9,900.5c-8.7-4.8-21.3-7.5-34.5-7.5c-13.3,0-26,2.7-34.5,7.5l-1.8-3
														c9.2-5.1,22.4-8,36.3-8c13.9,0,27.1,2.9,36.3,8L-647.9,900.5L-647.9,900.5z"/>
													<path id="Shape_2_" class="st7" d="M-682.4,916.2c-14,0-25-20.5-25-46.5c0-26.1,11-46.5,25-46.5c14,0,25,20.5,25,46.5
														C-657.4,895.7-668.3,916.2-682.4,916.2L-682.4,916.2z M-682.4,826.4c-11.7,0-21.5,19.8-21.5,43.2
														c0,23.5,9.9,43.2,21.5,43.2c11.7,0,21.5-19.8,21.5-43.2C-660.8,846.2-670.7,826.4-682.4,826.4L-682.4,826.4z"/>
													<rect id="Rectangle-path" x="-684.2" y="825" class="st7" width="3.6" height="89.3"/>
													<rect id="Rectangle-path_1_" x="-728.9" y="868" class="st7" width="93.2" height="3.3"/>
												</g>
											</g>
										</g>
									</g>
								</g>
							</g>
						</g>
					</g>
				</g>
			</g>
		</g>
	</g>
</g>
</svg>
