<?xml version="1.0" encoding="UTF-8" standalone="no"?>
<svg width="150px" height="150px" viewBox="0 0 150 150" version="1.1" xmlns="http://www.w3.org/2000/svg" xmlns:xlink="http://www.w3.org/1999/xlink" xmlns:sketch="http://www.bohemiancoding.com/sketch/ns">
    <!-- Generator: Sketch 3.5 (25232) - http://www.bohemiancoding.com/sketch -->
    <title>Social Studies</title>
    <desc>Created with Sketch.</desc>
    <defs>
        <linearGradient x1="50%" y1="0%" x2="50%" y2="100%" id="linearGradient-1">
            <stop stop-color="#D7D7D7" offset="0%"></stop>
            <stop stop-color="#ABABAB" offset="100%"></stop>
        </linearGradient>
        <filter x="-50%" y="-50%" width="200%" height="200%" filterUnits="objectBoundingBox" id="filter-2">
            <feOffset dx="0" dy="10" in="SourceAlpha" result="shadowOffsetOuter1"></feOffset>
            <feGaussianBlur stdDeviation="12.5" in="shadowOffsetOuter1" result="shadowBlurOuter1"></feGaussianBlur>
            <feColorMatrix values="0 0 0 0 0   0 0 0 0 0   0 0 0 0 0  0 0 0 0.0811594203 0" in="shadowBlurOuter1" type="matrix" result="shadowMatrixOuter1"></feColorMatrix>
            <feMerge>
                <feMergeNode in="shadowMatrixOuter1"></feMergeNode>
                <feMergeNode in="SourceGraphic"></feMergeNode>
            </feMerge>
        </filter>
        <rect id="path-3" x="0" y="0" width="1280" height="2568" rx="6"></rect>
    </defs>
    <g id="Qpalx-_-UX" stroke="none" stroke-width="1" fill="none" fill-rule="evenodd" sketch:type="MSPage">
        <g id="Sign-Up---Select-Courses" sketch:type="MSArtboardGroup" transform="translate(-86.000000, -1699.000000)">
            <g id="Home" sketch:type="MSLayerGroup" transform="translate(0.000000, -5.000000)">
                <g id="Content">
                    <mask id="mask-4" sketch:name="Mask" fill="white">
                        <use xlink:href="#path-3"></use>
                    </mask>
                    <use id="Mask" stroke="url(#linearGradient-1)" fill="#FFFFFF" filter="url(#filter-2)" sketch:type="MSShapeGroup" xlink:href="#path-3"></use>
                    <g id="Site-Content" mask="url(#mask-4)">
                        <g transform="translate(0.000000, 72.000000)" id="content">
                            <g transform="translate(86.000000, 699.000000)">
                                <g id="Group-6" transform="translate(0.000000, 933.000000)" sketch:type="MSShapeGroup">
                                    <g id="Social-Studies">
                                        <g id="Layer_1">
                                            <g id="Group">
                                                <circle id="Oval" fill="#2C97DE" cx="75" cy="75" r="75"></circle>
                                                <g transform="translate(28.380952, 27.380952)" id="Shape">
                                                    <path d="M14.3571429,0.714285714 C12.0952381,0.714285714 10.1904762,2.61904762 10.1904762,4.88095238 L10.1904762,90.2380952 C10.1904762,92.5 12.0952381,94.4047619 14.3571429,94.4047619 L22.6904762,94.4047619 L22.6904762,0.714285714 L14.3571429,0.714285714 L14.3571429,0.714285714 Z" fill="#E3E6E8"></path>
                                                    <path d="M81.2619048,0.714285714 L22.6904762,0.714285714 L22.6904762,94.5238095 L81.2619048,94.5238095 C83.5238095,94.5238095 85.4285714,92.6190476 85.4285714,90.3571429 L85.4285714,5 C85.4285714,2.61904762 83.6428571,0.714285714 81.2619048,0.714285714 L81.2619048,0.714285714 Z" fill="#DBAE1F"></path>
                                                    <path d="M74.5952381,47.6190476 L64.8333333,40.1190476 L55.0714286,47.6190476 L55.0714286,0.714285714 L74.5952381,0.714285714 L74.5952381,47.6190476 Z" fill="#EA4949"></path>
                                                    <path d="M18.7619048,12.6190476 L1.85714286,12.6190476 C0.904761905,12.6190476 0.0714285714,11.7857143 0.0714285714,10.8333333 C0.0714285714,9.88095238 0.904761905,9.04761905 1.85714286,9.04761905 L18.6428571,9.04761905 C19.5952381,9.04761905 20.4285714,9.88095238 20.4285714,10.8333333 C20.4285714,11.7857143 19.7142857,12.6190476 18.7619048,12.6190476 L18.7619048,12.6190476 Z" fill="#5D5E61"></path>
                                                    <path d="M18.7619048,19.1666667 L1.85714286,19.1666667 C0.904761905,19.1666667 0.0714285714,18.3333333 0.0714285714,17.3809524 C0.0714285714,16.4285714 0.904761905,15.5952381 1.85714286,15.5952381 L18.6428571,15.5952381 C19.5952381,15.5952381 20.4285714,16.4285714 20.4285714,17.3809524 C20.4285714,18.452381 19.7142857,19.1666667 18.7619048,19.1666667 L18.7619048,19.1666667 Z" fill="#5D5E61"></path>
                                                    <path d="M18.7619048,79.5238095 L1.85714286,79.5238095 C0.904761905,79.5238095 0.0714285714,78.6904762 0.0714285714,77.7380952 C0.0714285714,76.7857143 0.904761905,75.952381 1.85714286,75.952381 L18.6428571,75.952381 C19.5952381,75.952381 20.4285714,76.7857143 20.4285714,77.7380952 C20.4285714,78.6904762 19.7142857,79.5238095 18.7619048,79.5238095 L18.7619048,79.5238095 Z" fill="#5D5E61"></path>
                                                    <path d="M18.7619048,86.1904762 L1.85714286,86.1904762 C0.904761905,86.1904762 0.0714285714,85.3571429 0.0714285714,84.4047619 C0.0714285714,83.452381 0.904761905,82.6190476 1.85714286,82.6190476 L18.6428571,82.6190476 C19.5952381,82.6190476 20.4285714,83.452381 20.4285714,84.4047619 C20.4285714,85.3571429 19.7142857,86.1904762 18.7619048,86.1904762 L18.7619048,86.1904762 Z" fill="#5D5E61"></path>
                                                </g>
                                            </g>
                                        </g>
                                    </g>
                                </g>
                            </g>
                        </g>
                    </g>
                </g>
            </g>
        </g>
    </g>
</svg>