<?xml version="1.0" encoding="UTF-8" standalone="no"?>
<svg width="150px" height="150px" viewBox="0 0 150 150" version="1.1" xmlns="http://www.w3.org/2000/svg" xmlns:xlink="http://www.w3.org/1999/xlink" xmlns:sketch="http://www.bohemiancoding.com/sketch/ns">
    <!-- Generator: Sketch 3.5 (25232) - http://www.bohemiancoding.com/sketch -->
    <title>Technology</title>
    <desc>Created with Sketch.</desc>
    <defs>
        <linearGradient x1="50%" y1="0%" x2="50%" y2="100%" id="linearGradient-1">
            <stop stop-color="#D7D7D7" offset="0%"></stop>
            <stop stop-color="#ABABAB" offset="100%"></stop>
        </linearGradient>
        <filter x="-50%" y="-50%" width="200%" height="200%" filterUnits="objectBoundingBox" id="filter-2">
            <feOffset dx="0" dy="10" in="SourceAlpha" result="shadowOffsetOuter1"></feOffset>
            <feGaussianBlur stdDeviation="12.5" in="shadowOffsetOuter1" result="shadowBlurOuter1"></feGaussianBlur>
            <feColorMatrix values="0 0 0 0 0   0 0 0 0 0   0 0 0 0 0  0 0 0 0.0811594203 0" in="shadowBlurOuter1" type="matrix" result="shadowMatrixOuter1"></feColorMatrix>
            <feMerge>
                <feMergeNode in="shadowMatrixOuter1"></feMergeNode>
                <feMergeNode in="SourceGraphic"></feMergeNode>
            </feMerge>
        </filter>
        <rect id="path-3" x="0" y="0" width="1280" height="2568" rx="6"></rect>
    </defs>
    <g id="Qpalx-_-UX" stroke="none" stroke-width="1" fill="none" fill-rule="evenodd" sketch:type="MSPage">
        <g id="Sign-Up---Select-Courses" sketch:type="MSArtboardGroup" transform="translate(-677.000000, -1410.000000)">
            <g id="Home" sketch:type="MSLayerGroup" transform="translate(0.000000, -5.000000)">
                <g id="Content">
                    <mask id="mask-4" sketch:name="Mask" fill="white">
                        <use xlink:href="#path-3"></use>
                    </mask>
                    <use id="Mask" stroke="url(#linearGradient-1)" fill="#FFFFFF" filter="url(#filter-2)" sketch:type="MSShapeGroup" xlink:href="#path-3"></use>
                    <g id="Site-Content" mask="url(#mask-4)">
                        <g transform="translate(0.000000, 72.000000)" id="content">
                            <g transform="translate(86.000000, 699.000000)">
                                <g id="Group-9" transform="translate(573.000000, 644.000000)" sketch:type="MSShapeGroup">
                                    <g id="Technology" transform="translate(18.000000, 0.000000)">
                                        <g id="Layer_1">
                                            <g id="Group">
                                                <g>
                                                    <circle id="Oval" fill="#388CCB" cx="75" cy="75" r="75"></circle>
                                                    <path d="M36.1904762,113.809524 L36.1904762,113.809524 C25.4761905,103.095238 25.4761905,85.8333333 36.1904762,75.1190476 L79.2857143,32.0238095 C81.4285714,29.8809524 84.8809524,29.8809524 87.0238095,32.0238095 L117.97619,62.9761905 C120.119048,65.1190476 120.119048,68.5714286 117.97619,70.7142857 L74.7619048,113.809524 C64.1666667,124.52381 46.7857143,124.52381 36.1904762,113.809524 L36.1904762,113.809524 Z" id="Shape" fill="#DBAE1F"></path>
                                                    <path d="M79.4047619,70.5952381 L98.6904762,89.8809524 L117.857143,70.8333333 C120,68.6904762 120,65.1190476 117.857143,62.9761905 L102.380952,47.6190476 L79.4047619,70.5952381 L79.4047619,70.5952381 Z" id="Shape" fill="#EA4949"></path>
                                                    <path d="M79.4047619,70.5952381 L60.1190476,51.3095238 L79.1666667,32.2619048 C81.3095238,30.1190476 84.8809524,30.1190476 87.0238095,32.2619048 L102.5,47.7380952 L79.4047619,70.5952381 L79.4047619,70.5952381 Z" id="Shape" fill="#E3E6E8"></path>
                                                </g>
                                                <path d="M119.152429,28.0826905 L121.846143,30.7764048 L103.74775,48.8747976 L101.054036,46.1810833 L119.152429,28.0826905 L119.152429,28.0826905 Z" id="Rectangle-path" fill="#565756"></path>
                                            </g>
                                        </g>
                                    </g>
                                </g>
                            </g>
                        </g>
                    </g>
                </g>
            </g>
        </g>
    </g>
</svg>